<?xml version="1.0" encoding="utf-8" standalone="no"?>
<!DOCTYPE svg PUBLIC "-//W3C//DTD SVG 1.1//EN"
  "http://www.w3.org/Graphics/SVG/1.1/DTD/svg11.dtd">
<svg xmlns:xlink="http://www.w3.org/1999/xlink" width="679.978828pt" height="291.6pt" viewBox="0 0 679.978828 291.6" xmlns="http://www.w3.org/2000/svg" version="1.1">
 <metadata>
  <rdf:RDF xmlns:dc="http://purl.org/dc/elements/1.1/" xmlns:cc="http://creativecommons.org/ns#" xmlns:rdf="http://www.w3.org/1999/02/22-rdf-syntax-ns#">
   <cc:Work>
    <dc:type rdf:resource="http://purl.org/dc/dcmitype/StillImage"/>
    <dc:date>2025-08-12T12:06:18.372118</dc:date>
    <dc:format>image/svg+xml</dc:format>
    <dc:creator>
     <cc:Agent>
      <dc:title>Matplotlib v3.6.3, https://matplotlib.org/</dc:title>
     </cc:Agent>
    </dc:creator>
   </cc:Work>
  </rdf:RDF>
 </metadata>
 <defs>
  <style type="text/css">*{stroke-linejoin: round; stroke-linecap: butt}</style>
 </defs>
 <g id="figure_1">
  <g id="patch_1">
   <path d="M 0 291.6 
L 679.978828 291.6 
L 679.978828 0 
L 0 0 
z
" style="fill: #ffffff"/>
  </g>
  <g id="axes_1">
   <g id="patch_2">
    <path d="M 100.508291 145.8 
Q 109.667495 145.8 116.590632 145.8 
" clip-path="url(#p7e25a7327f)" style="fill: none; stroke: #0077bb; stroke-width: 2; stroke-linecap: round"/>
    <path d="M 110.590632 142.8 
L 116.590632 145.8 
L 110.590632 148.8 
" clip-path="url(#p7e25a7327f)" style="fill: none; stroke: #0077bb; stroke-width: 2; stroke-linecap: round"/>
   </g>
   <g id="patch_3">
    <path d="M 212.108291 145.8 
Q 221.267495 145.8 228.190632 145.8 
" clip-path="url(#p7e25a7327f)" style="fill: none; stroke: #0077bb; stroke-width: 2; stroke-linecap: round"/>
    <path d="M 222.190632 142.8 
L 228.190632 145.8 
L 222.190632 148.8 
" clip-path="url(#p7e25a7327f)" style="fill: none; stroke: #0077bb; stroke-width: 2; stroke-linecap: round"/>
   </g>
   <g id="patch_4">
    <path d="M 323.708291 145.8 
Q 332.867495 145.8 339.790632 145.8 
" clip-path="url(#p7e25a7327f)" style="fill: none; stroke: #0077bb; stroke-width: 2; stroke-linecap: round"/>
    <path d="M 333.790632 142.8 
L 339.790632 145.8 
L 333.790632 148.8 
" clip-path="url(#p7e25a7327f)" style="fill: none; stroke: #0077bb; stroke-width: 2; stroke-linecap: round"/>
   </g>
   <g id="patch_5">
    <path d="M 435.308291 145.8 
Q 444.467495 145.8 451.390632 145.8 
" clip-path="url(#p7e25a7327f)" style="fill: none; stroke: #0077bb; stroke-width: 2; stroke-linecap: round"/>
    <path d="M 445.390632 142.8 
L 451.390632 145.8 
L 445.390632 148.8 
" clip-path="url(#p7e25a7327f)" style="fill: none; stroke: #0077bb; stroke-width: 2; stroke-linecap: round"/>
   </g>
   <g id="patch_6">
    <path d="M 546.908291 145.8 
Q 556.067495 145.8 562.990632 145.8 
" clip-path="url(#p7e25a7327f)" style="fill: none; stroke: #0077bb; stroke-width: 2; stroke-linecap: round"/>
    <path d="M 556.990632 142.8 
L 562.990632 145.8 
L 556.990632 148.8 
" clip-path="url(#p7e25a7327f)" style="fill: none; stroke: #0077bb; stroke-width: 2; stroke-linecap: round"/>
   </g>
   <g id="text_1">
    <g id="patch_7">
     <path d="M 7.2 157.894172 
L 100.531406 157.894172 
Q 103.231406 157.894172 103.231406 155.194172 
L 103.231406 136.405828 
Q 103.231406 133.705828 100.531406 133.705828 
L 7.2 133.705828 
Q 4.5 133.705828 4.5 136.405828 
L 4.5 155.194172 
Q 4.5 157.894172 7.2 157.894172 
z
" style="fill: #e0f0ff; stroke: #0077bb; stroke-width: 2; stroke-linejoin: miter"/>
    </g>
    <!-- Mixamo / Move.ai -->
    <g style="fill: #333333" transform="translate(14.292422 143.244422) scale(0.09 -0.09)">
     <defs>
      <path id="DejaVuSans-4d" d="M 628 4666 
L 1569 4666 
L 2759 1491 
L 3956 4666 
L 4897 4666 
L 4897 0 
L 4281 0 
L 4281 4097 
L 3078 897 
L 2444 897 
L 1241 4097 
L 1241 0 
L 628 0 
L 628 4666 
z
" transform="scale(0.015625)"/>
      <path id="DejaVuSans-69" d="M 603 3500 
L 1178 3500 
L 1178 0 
L 603 0 
L 603 3500 
z
M 603 4863 
L 1178 4863 
L 1178 4134 
L 603 4134 
L 603 4863 
z
" transform="scale(0.015625)"/>
      <path id="DejaVuSans-78" d="M 3513 3500 
L 2247 1797 
L 3578 0 
L 2900 0 
L 1881 1375 
L 863 0 
L 184 0 
L 1544 1831 
L 300 3500 
L 978 3500 
L 1906 2253 
L 2834 3500 
L 3513 3500 
z
" transform="scale(0.015625)"/>
      <path id="DejaVuSans-61" d="M 2194 1759 
Q 1497 1759 1228 1600 
Q 959 1441 959 1056 
Q 959 750 1161 570 
Q 1363 391 1709 391 
Q 2188 391 2477 730 
Q 2766 1069 2766 1631 
L 2766 1759 
L 2194 1759 
z
M 3341 1997 
L 3341 0 
L 2766 0 
L 2766 531 
Q 2569 213 2275 61 
Q 1981 -91 1556 -91 
Q 1019 -91 701 211 
Q 384 513 384 1019 
Q 384 1609 779 1909 
Q 1175 2209 1959 2209 
L 2766 2209 
L 2766 2266 
Q 2766 2663 2505 2880 
Q 2244 3097 1772 3097 
Q 1472 3097 1187 3025 
Q 903 2953 641 2809 
L 641 3341 
Q 956 3463 1253 3523 
Q 1550 3584 1831 3584 
Q 2591 3584 2966 3190 
Q 3341 2797 3341 1997 
z
" transform="scale(0.015625)"/>
      <path id="DejaVuSans-6d" d="M 3328 2828 
Q 3544 3216 3844 3400 
Q 4144 3584 4550 3584 
Q 5097 3584 5394 3201 
Q 5691 2819 5691 2113 
L 5691 0 
L 5113 0 
L 5113 2094 
Q 5113 2597 4934 2840 
Q 4756 3084 4391 3084 
Q 3944 3084 3684 2787 
Q 3425 2491 3425 1978 
L 3425 0 
L 2847 0 
L 2847 2094 
Q 2847 2600 2669 2842 
Q 2491 3084 2119 3084 
Q 1678 3084 1418 2786 
Q 1159 2488 1159 1978 
L 1159 0 
L 581 0 
L 581 3500 
L 1159 3500 
L 1159 2956 
Q 1356 3278 1631 3431 
Q 1906 3584 2284 3584 
Q 2666 3584 2933 3390 
Q 3200 3197 3328 2828 
z
" transform="scale(0.015625)"/>
      <path id="DejaVuSans-6f" d="M 1959 3097 
Q 1497 3097 1228 2736 
Q 959 2375 959 1747 
Q 959 1119 1226 758 
Q 1494 397 1959 397 
Q 2419 397 2687 759 
Q 2956 1122 2956 1747 
Q 2956 2369 2687 2733 
Q 2419 3097 1959 3097 
z
M 1959 3584 
Q 2709 3584 3137 3096 
Q 3566 2609 3566 1747 
Q 3566 888 3137 398 
Q 2709 -91 1959 -91 
Q 1206 -91 779 398 
Q 353 888 353 1747 
Q 353 2609 779 3096 
Q 1206 3584 1959 3584 
z
" transform="scale(0.015625)"/>
      <path id="DejaVuSans-20" transform="scale(0.015625)"/>
      <path id="DejaVuSans-2f" d="M 1625 4666 
L 2156 4666 
L 531 -594 
L 0 -594 
L 1625 4666 
z
" transform="scale(0.015625)"/>
      <path id="DejaVuSans-76" d="M 191 3500 
L 800 3500 
L 1894 563 
L 2988 3500 
L 3597 3500 
L 2284 0 
L 1503 0 
L 191 3500 
z
" transform="scale(0.015625)"/>
      <path id="DejaVuSans-65" d="M 3597 1894 
L 3597 1613 
L 953 1613 
Q 991 1019 1311 708 
Q 1631 397 2203 397 
Q 2534 397 2845 478 
Q 3156 559 3463 722 
L 3463 178 
Q 3153 47 2828 -22 
Q 2503 -91 2169 -91 
Q 1331 -91 842 396 
Q 353 884 353 1716 
Q 353 2575 817 3079 
Q 1281 3584 2069 3584 
Q 2775 3584 3186 3129 
Q 3597 2675 3597 1894 
z
M 3022 2063 
Q 3016 2534 2758 2815 
Q 2500 3097 2075 3097 
Q 1594 3097 1305 2825 
Q 1016 2553 972 2059 
L 3022 2063 
z
" transform="scale(0.015625)"/>
      <path id="DejaVuSans-2e" d="M 684 794 
L 1344 794 
L 1344 0 
L 684 0 
L 684 794 
z
" transform="scale(0.015625)"/>
     </defs>
     <use xlink:href="#DejaVuSans-4d"/>
     <use xlink:href="#DejaVuSans-69" x="86.279297"/>
     <use xlink:href="#DejaVuSans-78" x="114.0625"/>
     <use xlink:href="#DejaVuSans-61" x="173.242188"/>
     <use xlink:href="#DejaVuSans-6d" x="234.521484"/>
     <use xlink:href="#DejaVuSans-6f" x="331.933594"/>
     <use xlink:href="#DejaVuSans-20" x="393.115234"/>
     <use xlink:href="#DejaVuSans-2f" x="424.902344"/>
     <use xlink:href="#DejaVuSans-20" x="458.59375"/>
     <use xlink:href="#DejaVuSans-4d" x="490.380859"/>
     <use xlink:href="#DejaVuSans-6f" x="576.660156"/>
     <use xlink:href="#DejaVuSans-76" x="637.841797"/>
     <use xlink:href="#DejaVuSans-65" x="697.021484"/>
     <use xlink:href="#DejaVuSans-2e" x="758.544922"/>
     <use xlink:href="#DejaVuSans-61" x="790.332031"/>
     <use xlink:href="#DejaVuSans-69" x="851.611328"/>
    </g>
    <!-- (Download FBX/GLB) -->
    <g style="fill: #333333" transform="translate(7.2 153.322453) scale(0.09 -0.09)">
     <defs>
      <path id="DejaVuSans-28" d="M 1984 4856 
Q 1566 4138 1362 3434 
Q 1159 2731 1159 2009 
Q 1159 1288 1364 580 
Q 1569 -128 1984 -844 
L 1484 -844 
Q 1016 -109 783 600 
Q 550 1309 550 2009 
Q 550 2706 781 3412 
Q 1013 4119 1484 4856 
L 1984 4856 
z
" transform="scale(0.015625)"/>
      <path id="DejaVuSans-44" d="M 1259 4147 
L 1259 519 
L 2022 519 
Q 2988 519 3436 956 
Q 3884 1394 3884 2338 
Q 3884 3275 3436 3711 
Q 2988 4147 2022 4147 
L 1259 4147 
z
M 628 4666 
L 1925 4666 
Q 3281 4666 3915 4102 
Q 4550 3538 4550 2338 
Q 4550 1131 3912 565 
Q 3275 0 1925 0 
L 628 0 
L 628 4666 
z
" transform="scale(0.015625)"/>
      <path id="DejaVuSans-77" d="M 269 3500 
L 844 3500 
L 1563 769 
L 2278 3500 
L 2956 3500 
L 3675 769 
L 4391 3500 
L 4966 3500 
L 4050 0 
L 3372 0 
L 2619 2869 
L 1863 0 
L 1184 0 
L 269 3500 
z
" transform="scale(0.015625)"/>
      <path id="DejaVuSans-6e" d="M 3513 2113 
L 3513 0 
L 2938 0 
L 2938 2094 
Q 2938 2591 2744 2837 
Q 2550 3084 2163 3084 
Q 1697 3084 1428 2787 
Q 1159 2491 1159 1978 
L 1159 0 
L 581 0 
L 581 3500 
L 1159 3500 
L 1159 2956 
Q 1366 3272 1645 3428 
Q 1925 3584 2291 3584 
Q 2894 3584 3203 3211 
Q 3513 2838 3513 2113 
z
" transform="scale(0.015625)"/>
      <path id="DejaVuSans-6c" d="M 603 4863 
L 1178 4863 
L 1178 0 
L 603 0 
L 603 4863 
z
" transform="scale(0.015625)"/>
      <path id="DejaVuSans-64" d="M 2906 2969 
L 2906 4863 
L 3481 4863 
L 3481 0 
L 2906 0 
L 2906 525 
Q 2725 213 2448 61 
Q 2172 -91 1784 -91 
Q 1150 -91 751 415 
Q 353 922 353 1747 
Q 353 2572 751 3078 
Q 1150 3584 1784 3584 
Q 2172 3584 2448 3432 
Q 2725 3281 2906 2969 
z
M 947 1747 
Q 947 1113 1208 752 
Q 1469 391 1925 391 
Q 2381 391 2643 752 
Q 2906 1113 2906 1747 
Q 2906 2381 2643 2742 
Q 2381 3103 1925 3103 
Q 1469 3103 1208 2742 
Q 947 2381 947 1747 
z
" transform="scale(0.015625)"/>
      <path id="DejaVuSans-46" d="M 628 4666 
L 3309 4666 
L 3309 4134 
L 1259 4134 
L 1259 2759 
L 3109 2759 
L 3109 2228 
L 1259 2228 
L 1259 0 
L 628 0 
L 628 4666 
z
" transform="scale(0.015625)"/>
      <path id="DejaVuSans-42" d="M 1259 2228 
L 1259 519 
L 2272 519 
Q 2781 519 3026 730 
Q 3272 941 3272 1375 
Q 3272 1813 3026 2020 
Q 2781 2228 2272 2228 
L 1259 2228 
z
M 1259 4147 
L 1259 2741 
L 2194 2741 
Q 2656 2741 2882 2914 
Q 3109 3088 3109 3444 
Q 3109 3797 2882 3972 
Q 2656 4147 2194 4147 
L 1259 4147 
z
M 628 4666 
L 2241 4666 
Q 2963 4666 3353 4366 
Q 3744 4066 3744 3513 
Q 3744 3084 3544 2831 
Q 3344 2578 2956 2516 
Q 3422 2416 3680 2098 
Q 3938 1781 3938 1306 
Q 3938 681 3513 340 
Q 3088 0 2303 0 
L 628 0 
L 628 4666 
z
" transform="scale(0.015625)"/>
      <path id="DejaVuSans-58" d="M 403 4666 
L 1081 4666 
L 2241 2931 
L 3406 4666 
L 4084 4666 
L 2584 2425 
L 4184 0 
L 3506 0 
L 2194 1984 
L 872 0 
L 191 0 
L 1856 2491 
L 403 4666 
z
" transform="scale(0.015625)"/>
      <path id="DejaVuSans-47" d="M 3809 666 
L 3809 1919 
L 2778 1919 
L 2778 2438 
L 4434 2438 
L 4434 434 
Q 4069 175 3628 42 
Q 3188 -91 2688 -91 
Q 1594 -91 976 548 
Q 359 1188 359 2328 
Q 359 3472 976 4111 
Q 1594 4750 2688 4750 
Q 3144 4750 3555 4637 
Q 3966 4525 4313 4306 
L 4313 3634 
Q 3963 3931 3569 4081 
Q 3175 4231 2741 4231 
Q 1884 4231 1454 3753 
Q 1025 3275 1025 2328 
Q 1025 1384 1454 906 
Q 1884 428 2741 428 
Q 3075 428 3337 486 
Q 3600 544 3809 666 
z
" transform="scale(0.015625)"/>
      <path id="DejaVuSans-4c" d="M 628 4666 
L 1259 4666 
L 1259 531 
L 3531 531 
L 3531 0 
L 628 0 
L 628 4666 
z
" transform="scale(0.015625)"/>
      <path id="DejaVuSans-29" d="M 513 4856 
L 1013 4856 
Q 1481 4119 1714 3412 
Q 1947 2706 1947 2009 
Q 1947 1309 1714 600 
Q 1481 -109 1013 -844 
L 513 -844 
Q 928 -128 1133 580 
Q 1338 1288 1338 2009 
Q 1338 2731 1133 3434 
Q 928 4138 513 4856 
z
" transform="scale(0.015625)"/>
     </defs>
     <use xlink:href="#DejaVuSans-28"/>
     <use xlink:href="#DejaVuSans-44" x="39.013672"/>
     <use xlink:href="#DejaVuSans-6f" x="116.015625"/>
     <use xlink:href="#DejaVuSans-77" x="177.197266"/>
     <use xlink:href="#DejaVuSans-6e" x="258.984375"/>
     <use xlink:href="#DejaVuSans-6c" x="322.363281"/>
     <use xlink:href="#DejaVuSans-6f" x="350.146484"/>
     <use xlink:href="#DejaVuSans-61" x="411.328125"/>
     <use xlink:href="#DejaVuSans-64" x="472.607422"/>
     <use xlink:href="#DejaVuSans-20" x="536.083984"/>
     <use xlink:href="#DejaVuSans-46" x="567.871094"/>
     <use xlink:href="#DejaVuSans-42" x="625.390625"/>
     <use xlink:href="#DejaVuSans-58" x="693.994141"/>
     <use xlink:href="#DejaVuSans-2f" x="762.5"/>
     <use xlink:href="#DejaVuSans-47" x="796.191406"/>
     <use xlink:href="#DejaVuSans-4c" x="873.681641"/>
     <use xlink:href="#DejaVuSans-42" x="929.394531"/>
     <use xlink:href="#DejaVuSans-29" x="997.998047"/>
    </g>
   </g>
   <g id="text_2">
    <g id="patch_8">
     <path d="M 120.316641 158.019328 
L 210.614766 158.019328 
Q 213.314766 158.019328 213.314766 155.319328 
L 213.314766 136.030359 
Q 213.314766 133.330359 210.614766 133.330359 
L 120.316641 133.330359 
Q 117.616641 133.330359 117.616641 136.030359 
L 117.616641 155.319328 
Q 117.616641 158.019328 120.316641 158.019328 
z
" style="fill: #e0f0ff; stroke: #0077bb; stroke-width: 2; stroke-linejoin: miter"/>
    </g>
    <!-- mixamo_picklist.csv -->
    <g style="fill: #333333" transform="translate(120.316641 143.119266) scale(0.09 -0.09)">
     <defs>
      <path id="DejaVuSans-5f" d="M 3263 -1063 
L 3263 -1509 
L -63 -1509 
L -63 -1063 
L 3263 -1063 
z
" transform="scale(0.015625)"/>
      <path id="DejaVuSans-70" d="M 1159 525 
L 1159 -1331 
L 581 -1331 
L 581 3500 
L 1159 3500 
L 1159 2969 
Q 1341 3281 1617 3432 
Q 1894 3584 2278 3584 
Q 2916 3584 3314 3078 
Q 3713 2572 3713 1747 
Q 3713 922 3314 415 
Q 2916 -91 2278 -91 
Q 1894 -91 1617 61 
Q 1341 213 1159 525 
z
M 3116 1747 
Q 3116 2381 2855 2742 
Q 2594 3103 2138 3103 
Q 1681 3103 1420 2742 
Q 1159 2381 1159 1747 
Q 1159 1113 1420 752 
Q 1681 391 2138 391 
Q 2594 391 2855 752 
Q 3116 1113 3116 1747 
z
" transform="scale(0.015625)"/>
      <path id="DejaVuSans-63" d="M 3122 3366 
L 3122 2828 
Q 2878 2963 2633 3030 
Q 2388 3097 2138 3097 
Q 1578 3097 1268 2742 
Q 959 2388 959 1747 
Q 959 1106 1268 751 
Q 1578 397 2138 397 
Q 2388 397 2633 464 
Q 2878 531 3122 666 
L 3122 134 
Q 2881 22 2623 -34 
Q 2366 -91 2075 -91 
Q 1284 -91 818 406 
Q 353 903 353 1747 
Q 353 2603 823 3093 
Q 1294 3584 2113 3584 
Q 2378 3584 2631 3529 
Q 2884 3475 3122 3366 
z
" transform="scale(0.015625)"/>
      <path id="DejaVuSans-6b" d="M 581 4863 
L 1159 4863 
L 1159 1991 
L 2875 3500 
L 3609 3500 
L 1753 1863 
L 3688 0 
L 2938 0 
L 1159 1709 
L 1159 0 
L 581 0 
L 581 4863 
z
" transform="scale(0.015625)"/>
      <path id="DejaVuSans-73" d="M 2834 3397 
L 2834 2853 
Q 2591 2978 2328 3040 
Q 2066 3103 1784 3103 
Q 1356 3103 1142 2972 
Q 928 2841 928 2578 
Q 928 2378 1081 2264 
Q 1234 2150 1697 2047 
L 1894 2003 
Q 2506 1872 2764 1633 
Q 3022 1394 3022 966 
Q 3022 478 2636 193 
Q 2250 -91 1575 -91 
Q 1294 -91 989 -36 
Q 684 19 347 128 
L 347 722 
Q 666 556 975 473 
Q 1284 391 1588 391 
Q 1994 391 2212 530 
Q 2431 669 2431 922 
Q 2431 1156 2273 1281 
Q 2116 1406 1581 1522 
L 1381 1569 
Q 847 1681 609 1914 
Q 372 2147 372 2553 
Q 372 3047 722 3315 
Q 1072 3584 1716 3584 
Q 2034 3584 2315 3537 
Q 2597 3491 2834 3397 
z
" transform="scale(0.015625)"/>
      <path id="DejaVuSans-74" d="M 1172 4494 
L 1172 3500 
L 2356 3500 
L 2356 3053 
L 1172 3053 
L 1172 1153 
Q 1172 725 1289 603 
Q 1406 481 1766 481 
L 2356 481 
L 2356 0 
L 1766 0 
Q 1100 0 847 248 
Q 594 497 594 1153 
L 594 3053 
L 172 3053 
L 172 3500 
L 594 3500 
L 594 4494 
L 1172 4494 
z
" transform="scale(0.015625)"/>
     </defs>
     <use xlink:href="#DejaVuSans-6d"/>
     <use xlink:href="#DejaVuSans-69" x="97.412109"/>
     <use xlink:href="#DejaVuSans-78" x="125.195312"/>
     <use xlink:href="#DejaVuSans-61" x="184.375"/>
     <use xlink:href="#DejaVuSans-6d" x="245.654297"/>
     <use xlink:href="#DejaVuSans-6f" x="343.066406"/>
     <use xlink:href="#DejaVuSans-5f" x="404.248047"/>
     <use xlink:href="#DejaVuSans-70" x="454.248047"/>
     <use xlink:href="#DejaVuSans-69" x="517.724609"/>
     <use xlink:href="#DejaVuSans-63" x="545.507812"/>
     <use xlink:href="#DejaVuSans-6b" x="600.488281"/>
     <use xlink:href="#DejaVuSans-6c" x="658.398438"/>
     <use xlink:href="#DejaVuSans-69" x="686.181641"/>
     <use xlink:href="#DejaVuSans-73" x="713.964844"/>
     <use xlink:href="#DejaVuSans-74" x="766.064453"/>
     <use xlink:href="#DejaVuSans-2e" x="805.273438"/>
     <use xlink:href="#DejaVuSans-63" x="837.060547"/>
     <use xlink:href="#DejaVuSans-73" x="892.041016"/>
     <use xlink:href="#DejaVuSans-76" x="944.140625"/>
    </g>
    <!-- (Map animations) -->
    <g style="fill: #333333" transform="translate(126.062578 153.447609) scale(0.09 -0.09)">
     <use xlink:href="#DejaVuSans-28"/>
     <use xlink:href="#DejaVuSans-4d" x="39.013672"/>
     <use xlink:href="#DejaVuSans-61" x="125.292969"/>
     <use xlink:href="#DejaVuSans-70" x="186.572266"/>
     <use xlink:href="#DejaVuSans-20" x="250.048828"/>
     <use xlink:href="#DejaVuSans-61" x="281.835938"/>
     <use xlink:href="#DejaVuSans-6e" x="343.115234"/>
     <use xlink:href="#DejaVuSans-69" x="406.494141"/>
     <use xlink:href="#DejaVuSans-6d" x="434.277344"/>
     <use xlink:href="#DejaVuSans-61" x="531.689453"/>
     <use xlink:href="#DejaVuSans-74" x="592.96875"/>
     <use xlink:href="#DejaVuSans-69" x="632.177734"/>
     <use xlink:href="#DejaVuSans-6f" x="659.960938"/>
     <use xlink:href="#DejaVuSans-6e" x="721.142578"/>
     <use xlink:href="#DejaVuSans-73" x="784.521484"/>
     <use xlink:href="#DejaVuSans-29" x="836.621094"/>
    </g>
   </g>
   <g id="text_3">
    <g id="patch_9">
     <path d="M 175.474687 158.019328 
L 378.656719 158.019328 
Q 381.356719 158.019328 381.356719 155.319328 
L 381.356719 136.030359 
Q 381.356719 133.330359 378.656719 133.330359 
L 175.474687 133.330359 
Q 172.774687 133.330359 172.774687 136.030359 
L 172.774687 155.319328 
Q 172.774687 158.019328 175.474687 158.019328 
z
" style="fill: #e0f0ff; stroke: #0077bb; stroke-width: 2; stroke-linejoin: miter"/>
    </g>
    <!-- create_repcue_template_with_placeholder.py -->
    <g style="fill: #333333" transform="translate(175.474687 143.119266) scale(0.09 -0.09)">
     <defs>
      <path id="DejaVuSans-72" d="M 2631 2963 
Q 2534 3019 2420 3045 
Q 2306 3072 2169 3072 
Q 1681 3072 1420 2755 
Q 1159 2438 1159 1844 
L 1159 0 
L 581 0 
L 581 3500 
L 1159 3500 
L 1159 2956 
Q 1341 3275 1631 3429 
Q 1922 3584 2338 3584 
Q 2397 3584 2469 3576 
Q 2541 3569 2628 3553 
L 2631 2963 
z
" transform="scale(0.015625)"/>
      <path id="DejaVuSans-75" d="M 544 1381 
L 544 3500 
L 1119 3500 
L 1119 1403 
Q 1119 906 1312 657 
Q 1506 409 1894 409 
Q 2359 409 2629 706 
Q 2900 1003 2900 1516 
L 2900 3500 
L 3475 3500 
L 3475 0 
L 2900 0 
L 2900 538 
Q 2691 219 2414 64 
Q 2138 -91 1772 -91 
Q 1169 -91 856 284 
Q 544 659 544 1381 
z
M 1991 3584 
L 1991 3584 
z
" transform="scale(0.015625)"/>
      <path id="DejaVuSans-68" d="M 3513 2113 
L 3513 0 
L 2938 0 
L 2938 2094 
Q 2938 2591 2744 2837 
Q 2550 3084 2163 3084 
Q 1697 3084 1428 2787 
Q 1159 2491 1159 1978 
L 1159 0 
L 581 0 
L 581 4863 
L 1159 4863 
L 1159 2956 
Q 1366 3272 1645 3428 
Q 1925 3584 2291 3584 
Q 2894 3584 3203 3211 
Q 3513 2838 3513 2113 
z
" transform="scale(0.015625)"/>
      <path id="DejaVuSans-79" d="M 2059 -325 
Q 1816 -950 1584 -1140 
Q 1353 -1331 966 -1331 
L 506 -1331 
L 506 -850 
L 844 -850 
Q 1081 -850 1212 -737 
Q 1344 -625 1503 -206 
L 1606 56 
L 191 3500 
L 800 3500 
L 1894 763 
L 2988 3500 
L 3597 3500 
L 2059 -325 
z
" transform="scale(0.015625)"/>
     </defs>
     <use xlink:href="#DejaVuSans-63"/>
     <use xlink:href="#DejaVuSans-72" x="54.980469"/>
     <use xlink:href="#DejaVuSans-65" x="93.84375"/>
     <use xlink:href="#DejaVuSans-61" x="155.367188"/>
     <use xlink:href="#DejaVuSans-74" x="216.646484"/>
     <use xlink:href="#DejaVuSans-65" x="255.855469"/>
     <use xlink:href="#DejaVuSans-5f" x="317.378906"/>
     <use xlink:href="#DejaVuSans-72" x="367.378906"/>
     <use xlink:href="#DejaVuSans-65" x="406.242188"/>
     <use xlink:href="#DejaVuSans-70" x="467.765625"/>
     <use xlink:href="#DejaVuSans-63" x="531.242188"/>
     <use xlink:href="#DejaVuSans-75" x="586.222656"/>
     <use xlink:href="#DejaVuSans-65" x="649.601562"/>
     <use xlink:href="#DejaVuSans-5f" x="711.125"/>
     <use xlink:href="#DejaVuSans-74" x="761.125"/>
     <use xlink:href="#DejaVuSans-65" x="800.333984"/>
     <use xlink:href="#DejaVuSans-6d" x="861.857422"/>
     <use xlink:href="#DejaVuSans-70" x="959.269531"/>
     <use xlink:href="#DejaVuSans-6c" x="1022.746094"/>
     <use xlink:href="#DejaVuSans-61" x="1050.529297"/>
     <use xlink:href="#DejaVuSans-74" x="1111.808594"/>
     <use xlink:href="#DejaVuSans-65" x="1151.017578"/>
     <use xlink:href="#DejaVuSans-5f" x="1212.541016"/>
     <use xlink:href="#DejaVuSans-77" x="1262.541016"/>
     <use xlink:href="#DejaVuSans-69" x="1344.328125"/>
     <use xlink:href="#DejaVuSans-74" x="1372.111328"/>
     <use xlink:href="#DejaVuSans-68" x="1411.320312"/>
     <use xlink:href="#DejaVuSans-5f" x="1474.699219"/>
     <use xlink:href="#DejaVuSans-70" x="1524.699219"/>
     <use xlink:href="#DejaVuSans-6c" x="1588.175781"/>
     <use xlink:href="#DejaVuSans-61" x="1615.958984"/>
     <use xlink:href="#DejaVuSans-63" x="1677.238281"/>
     <use xlink:href="#DejaVuSans-65" x="1732.21875"/>
     <use xlink:href="#DejaVuSans-68" x="1793.742188"/>
     <use xlink:href="#DejaVuSans-6f" x="1857.121094"/>
     <use xlink:href="#DejaVuSans-6c" x="1918.302734"/>
     <use xlink:href="#DejaVuSans-64" x="1946.085938"/>
     <use xlink:href="#DejaVuSans-65" x="2009.5625"/>
     <use xlink:href="#DejaVuSans-72" x="2071.085938"/>
     <use xlink:href="#DejaVuSans-2e" x="2103.074219"/>
     <use xlink:href="#DejaVuSans-70" x="2134.861328"/>
     <use xlink:href="#DejaVuSans-79" x="2198.337891"/>
    </g>
    <!-- (Blender template) -->
    <g style="fill: #333333" transform="translate(234.376172 153.447609) scale(0.09 -0.09)">
     <use xlink:href="#DejaVuSans-28"/>
     <use xlink:href="#DejaVuSans-42" x="39.013672"/>
     <use xlink:href="#DejaVuSans-6c" x="107.617188"/>
     <use xlink:href="#DejaVuSans-65" x="135.400391"/>
     <use xlink:href="#DejaVuSans-6e" x="196.923828"/>
     <use xlink:href="#DejaVuSans-64" x="260.302734"/>
     <use xlink:href="#DejaVuSans-65" x="323.779297"/>
     <use xlink:href="#DejaVuSans-72" x="385.302734"/>
     <use xlink:href="#DejaVuSans-20" x="426.416016"/>
     <use xlink:href="#DejaVuSans-74" x="458.203125"/>
     <use xlink:href="#DejaVuSans-65" x="497.412109"/>
     <use xlink:href="#DejaVuSans-6d" x="558.935547"/>
     <use xlink:href="#DejaVuSans-70" x="656.347656"/>
     <use xlink:href="#DejaVuSans-6c" x="719.824219"/>
     <use xlink:href="#DejaVuSans-61" x="747.607422"/>
     <use xlink:href="#DejaVuSans-74" x="808.886719"/>
     <use xlink:href="#DejaVuSans-65" x="848.095703"/>
     <use xlink:href="#DejaVuSans-29" x="909.619141"/>
    </g>
   </g>
   <g id="text_4">
    <g id="patch_10">
     <path d="M 336.256172 158.019328 
L 441.075234 158.019328 
Q 443.775234 158.019328 443.775234 155.319328 
L 443.775234 136.030359 
Q 443.775234 133.330359 441.075234 133.330359 
L 336.256172 133.330359 
Q 333.556172 133.330359 333.556172 136.030359 
L 333.556172 155.319328 
Q 333.556172 158.019328 336.256172 158.019328 
z
" style="fill: #e0f0ff; stroke: #0077bb; stroke-width: 2; stroke-linejoin: miter"/>
    </g>
    <!-- build_catalog_blend.py -->
    <g style="fill: #333333" transform="translate(336.950859 143.119266) scale(0.09 -0.09)">
     <defs>
      <path id="DejaVuSans-62" d="M 3116 1747 
Q 3116 2381 2855 2742 
Q 2594 3103 2138 3103 
Q 1681 3103 1420 2742 
Q 1159 2381 1159 1747 
Q 1159 1113 1420 752 
Q 1681 391 2138 391 
Q 2594 391 2855 752 
Q 3116 1113 3116 1747 
z
M 1159 2969 
Q 1341 3281 1617 3432 
Q 1894 3584 2278 3584 
Q 2916 3584 3314 3078 
Q 3713 2572 3713 1747 
Q 3713 922 3314 415 
Q 2916 -91 2278 -91 
Q 1894 -91 1617 61 
Q 1341 213 1159 525 
L 1159 0 
L 581 0 
L 581 4863 
L 1159 4863 
L 1159 2969 
z
" transform="scale(0.015625)"/>
      <path id="DejaVuSans-67" d="M 2906 1791 
Q 2906 2416 2648 2759 
Q 2391 3103 1925 3103 
Q 1463 3103 1205 2759 
Q 947 2416 947 1791 
Q 947 1169 1205 825 
Q 1463 481 1925 481 
Q 2391 481 2648 825 
Q 2906 1169 2906 1791 
z
M 3481 434 
Q 3481 -459 3084 -895 
Q 2688 -1331 1869 -1331 
Q 1566 -1331 1297 -1286 
Q 1028 -1241 775 -1147 
L 775 -588 
Q 1028 -725 1275 -790 
Q 1522 -856 1778 -856 
Q 2344 -856 2625 -561 
Q 2906 -266 2906 331 
L 2906 616 
Q 2728 306 2450 153 
Q 2172 0 1784 0 
Q 1141 0 747 490 
Q 353 981 353 1791 
Q 353 2603 747 3093 
Q 1141 3584 1784 3584 
Q 2172 3584 2450 3431 
Q 2728 3278 2906 2969 
L 2906 3500 
L 3481 3500 
L 3481 434 
z
" transform="scale(0.015625)"/>
     </defs>
     <use xlink:href="#DejaVuSans-62"/>
     <use xlink:href="#DejaVuSans-75" x="63.476562"/>
     <use xlink:href="#DejaVuSans-69" x="126.855469"/>
     <use xlink:href="#DejaVuSans-6c" x="154.638672"/>
     <use xlink:href="#DejaVuSans-64" x="182.421875"/>
     <use xlink:href="#DejaVuSans-5f" x="245.898438"/>
     <use xlink:href="#DejaVuSans-63" x="295.898438"/>
     <use xlink:href="#DejaVuSans-61" x="350.878906"/>
     <use xlink:href="#DejaVuSans-74" x="412.158203"/>
     <use xlink:href="#DejaVuSans-61" x="451.367188"/>
     <use xlink:href="#DejaVuSans-6c" x="512.646484"/>
     <use xlink:href="#DejaVuSans-6f" x="540.429688"/>
     <use xlink:href="#DejaVuSans-67" x="601.611328"/>
     <use xlink:href="#DejaVuSans-5f" x="665.087891"/>
     <use xlink:href="#DejaVuSans-62" x="715.087891"/>
     <use xlink:href="#DejaVuSans-6c" x="778.564453"/>
     <use xlink:href="#DejaVuSans-65" x="806.347656"/>
     <use xlink:href="#DejaVuSans-6e" x="867.871094"/>
     <use xlink:href="#DejaVuSans-64" x="931.25"/>
     <use xlink:href="#DejaVuSans-2e" x="994.726562"/>
     <use xlink:href="#DejaVuSans-70" x="1026.513672"/>
     <use xlink:href="#DejaVuSans-79" x="1089.990234"/>
    </g>
    <!-- (All exercises in .blend) -->
    <g style="fill: #333333" transform="translate(336.256172 153.447609) scale(0.09 -0.09)">
     <defs>
      <path id="DejaVuSans-41" d="M 2188 4044 
L 1331 1722 
L 3047 1722 
L 2188 4044 
z
M 1831 4666 
L 2547 4666 
L 4325 0 
L 3669 0 
L 3244 1197 
L 1141 1197 
L 716 0 
L 50 0 
L 1831 4666 
z
" transform="scale(0.015625)"/>
     </defs>
     <use xlink:href="#DejaVuSans-28"/>
     <use xlink:href="#DejaVuSans-41" x="39.013672"/>
     <use xlink:href="#DejaVuSans-6c" x="107.421875"/>
     <use xlink:href="#DejaVuSans-6c" x="135.205078"/>
     <use xlink:href="#DejaVuSans-20" x="162.988281"/>
     <use xlink:href="#DejaVuSans-65" x="194.775391"/>
     <use xlink:href="#DejaVuSans-78" x="254.548828"/>
     <use xlink:href="#DejaVuSans-65" x="310.603516"/>
     <use xlink:href="#DejaVuSans-72" x="372.126953"/>
     <use xlink:href="#DejaVuSans-63" x="410.990234"/>
     <use xlink:href="#DejaVuSans-69" x="465.970703"/>
     <use xlink:href="#DejaVuSans-73" x="493.753906"/>
     <use xlink:href="#DejaVuSans-65" x="545.853516"/>
     <use xlink:href="#DejaVuSans-73" x="607.376953"/>
     <use xlink:href="#DejaVuSans-20" x="659.476562"/>
     <use xlink:href="#DejaVuSans-69" x="691.263672"/>
     <use xlink:href="#DejaVuSans-6e" x="719.046875"/>
     <use xlink:href="#DejaVuSans-20" x="782.425781"/>
     <use xlink:href="#DejaVuSans-2e" x="814.212891"/>
     <use xlink:href="#DejaVuSans-62" x="846"/>
     <use xlink:href="#DejaVuSans-6c" x="909.476562"/>
     <use xlink:href="#DejaVuSans-65" x="937.259766"/>
     <use xlink:href="#DejaVuSans-6e" x="998.783203"/>
     <use xlink:href="#DejaVuSans-64" x="1062.162109"/>
     <use xlink:href="#DejaVuSans-29" x="1125.638672"/>
    </g>
   </g>
   <g id="text_5">
    <g id="patch_11">
     <path d="M 440.225859 158.019328 
L 560.305547 158.019328 
Q 563.005547 158.019328 563.005547 155.319328 
L 563.005547 136.030359 
Q 563.005547 133.330359 560.305547 133.330359 
L 440.225859 133.330359 
Q 437.525859 133.330359 437.525859 136.030359 
L 437.525859 155.319328 
Q 437.525859 158.019328 440.225859 158.019328 
z
" style="fill: #e0f0ff; stroke: #0077bb; stroke-width: 2; stroke-linejoin: miter"/>
    </g>
    <!-- render_catalog_scenes.py -->
    <g style="fill: #333333" transform="translate(441.803672 143.119266) scale(0.09 -0.09)">
     <use xlink:href="#DejaVuSans-72"/>
     <use xlink:href="#DejaVuSans-65" x="38.863281"/>
     <use xlink:href="#DejaVuSans-6e" x="100.386719"/>
     <use xlink:href="#DejaVuSans-64" x="163.765625"/>
     <use xlink:href="#DejaVuSans-65" x="227.242188"/>
     <use xlink:href="#DejaVuSans-72" x="288.765625"/>
     <use xlink:href="#DejaVuSans-5f" x="329.878906"/>
     <use xlink:href="#DejaVuSans-63" x="379.878906"/>
     <use xlink:href="#DejaVuSans-61" x="434.859375"/>
     <use xlink:href="#DejaVuSans-74" x="496.138672"/>
     <use xlink:href="#DejaVuSans-61" x="535.347656"/>
     <use xlink:href="#DejaVuSans-6c" x="596.626953"/>
     <use xlink:href="#DejaVuSans-6f" x="624.410156"/>
     <use xlink:href="#DejaVuSans-67" x="685.591797"/>
     <use xlink:href="#DejaVuSans-5f" x="749.068359"/>
     <use xlink:href="#DejaVuSans-73" x="799.068359"/>
     <use xlink:href="#DejaVuSans-63" x="851.167969"/>
     <use xlink:href="#DejaVuSans-65" x="906.148438"/>
     <use xlink:href="#DejaVuSans-6e" x="967.671875"/>
     <use xlink:href="#DejaVuSans-65" x="1031.050781"/>
     <use xlink:href="#DejaVuSans-73" x="1092.574219"/>
     <use xlink:href="#DejaVuSans-2e" x="1144.673828"/>
     <use xlink:href="#DejaVuSans-70" x="1176.460938"/>
     <use xlink:href="#DejaVuSans-79" x="1239.9375"/>
    </g>
    <!-- (Render all scenes to MP4) -->
    <g style="fill: #333333" transform="translate(440.225859 153.447609) scale(0.09 -0.09)">
     <defs>
      <path id="DejaVuSans-52" d="M 2841 2188 
Q 3044 2119 3236 1894 
Q 3428 1669 3622 1275 
L 4263 0 
L 3584 0 
L 2988 1197 
Q 2756 1666 2539 1819 
Q 2322 1972 1947 1972 
L 1259 1972 
L 1259 0 
L 628 0 
L 628 4666 
L 2053 4666 
Q 2853 4666 3247 4331 
Q 3641 3997 3641 3322 
Q 3641 2881 3436 2590 
Q 3231 2300 2841 2188 
z
M 1259 4147 
L 1259 2491 
L 2053 2491 
Q 2509 2491 2742 2702 
Q 2975 2913 2975 3322 
Q 2975 3731 2742 3939 
Q 2509 4147 2053 4147 
L 1259 4147 
z
" transform="scale(0.015625)"/>
      <path id="DejaVuSans-50" d="M 1259 4147 
L 1259 2394 
L 2053 2394 
Q 2494 2394 2734 2622 
Q 2975 2850 2975 3272 
Q 2975 3691 2734 3919 
Q 2494 4147 2053 4147 
L 1259 4147 
z
M 628 4666 
L 2053 4666 
Q 2838 4666 3239 4311 
Q 3641 3956 3641 3272 
Q 3641 2581 3239 2228 
Q 2838 1875 2053 1875 
L 1259 1875 
L 1259 0 
L 628 0 
L 628 4666 
z
" transform="scale(0.015625)"/>
      <path id="DejaVuSans-34" d="M 2419 4116 
L 825 1625 
L 2419 1625 
L 2419 4116 
z
M 2253 4666 
L 3047 4666 
L 3047 1625 
L 3713 1625 
L 3713 1100 
L 3047 1100 
L 3047 0 
L 2419 0 
L 2419 1100 
L 313 1100 
L 313 1709 
L 2253 4666 
z
" transform="scale(0.015625)"/>
     </defs>
     <use xlink:href="#DejaVuSans-28"/>
     <use xlink:href="#DejaVuSans-52" x="39.013672"/>
     <use xlink:href="#DejaVuSans-65" x="103.996094"/>
     <use xlink:href="#DejaVuSans-6e" x="165.519531"/>
     <use xlink:href="#DejaVuSans-64" x="228.898438"/>
     <use xlink:href="#DejaVuSans-65" x="292.375"/>
     <use xlink:href="#DejaVuSans-72" x="353.898438"/>
     <use xlink:href="#DejaVuSans-20" x="395.011719"/>
     <use xlink:href="#DejaVuSans-61" x="426.798828"/>
     <use xlink:href="#DejaVuSans-6c" x="488.078125"/>
     <use xlink:href="#DejaVuSans-6c" x="515.861328"/>
     <use xlink:href="#DejaVuSans-20" x="543.644531"/>
     <use xlink:href="#DejaVuSans-73" x="575.431641"/>
     <use xlink:href="#DejaVuSans-63" x="627.53125"/>
     <use xlink:href="#DejaVuSans-65" x="682.511719"/>
     <use xlink:href="#DejaVuSans-6e" x="744.035156"/>
     <use xlink:href="#DejaVuSans-65" x="807.414062"/>
     <use xlink:href="#DejaVuSans-73" x="868.9375"/>
     <use xlink:href="#DejaVuSans-20" x="921.037109"/>
     <use xlink:href="#DejaVuSans-74" x="952.824219"/>
     <use xlink:href="#DejaVuSans-6f" x="992.033203"/>
     <use xlink:href="#DejaVuSans-20" x="1053.214844"/>
     <use xlink:href="#DejaVuSans-4d" x="1085.001953"/>
     <use xlink:href="#DejaVuSans-50" x="1171.28125"/>
     <use xlink:href="#DejaVuSans-34" x="1231.583984"/>
     <use xlink:href="#DejaVuSans-29" x="1295.207031"/>
    </g>
   </g>
   <g id="text_6">
    <g id="patch_12">
     <path d="M 550.952578 157.894172 
L 672.778828 157.894172 
Q 675.478828 157.894172 675.478828 155.194172 
L 675.478828 136.405828 
Q 675.478828 133.705828 672.778828 133.705828 
L 550.952578 133.705828 
Q 548.252578 133.705828 548.252578 136.405828 
L 548.252578 155.194172 
Q 548.252578 157.894172 550.952578 157.894172 
z
" style="fill: #e0f0ff; stroke: #0077bb; stroke-width: 2; stroke-linejoin: miter"/>
    </g>
    <!-- RepCue App -->
    <g style="fill: #333333" transform="translate(584.330625 143.244422) scale(0.09 -0.09)">
     <defs>
      <path id="DejaVuSans-43" d="M 4122 4306 
L 4122 3641 
Q 3803 3938 3442 4084 
Q 3081 4231 2675 4231 
Q 1875 4231 1450 3742 
Q 1025 3253 1025 2328 
Q 1025 1406 1450 917 
Q 1875 428 2675 428 
Q 3081 428 3442 575 
Q 3803 722 4122 1019 
L 4122 359 
Q 3791 134 3420 21 
Q 3050 -91 2638 -91 
Q 1578 -91 968 557 
Q 359 1206 359 2328 
Q 359 3453 968 4101 
Q 1578 4750 2638 4750 
Q 3056 4750 3426 4639 
Q 3797 4528 4122 4306 
z
" transform="scale(0.015625)"/>
     </defs>
     <use xlink:href="#DejaVuSans-52"/>
     <use xlink:href="#DejaVuSans-65" x="64.982422"/>
     <use xlink:href="#DejaVuSans-70" x="126.505859"/>
     <use xlink:href="#DejaVuSans-43" x="189.982422"/>
     <use xlink:href="#DejaVuSans-75" x="259.806641"/>
     <use xlink:href="#DejaVuSans-65" x="323.185547"/>
     <use xlink:href="#DejaVuSans-20" x="384.708984"/>
     <use xlink:href="#DejaVuSans-41" x="416.496094"/>
     <use xlink:href="#DejaVuSans-70" x="484.904297"/>
     <use xlink:href="#DejaVuSans-70" x="548.380859"/>
    </g>
    <!-- (Integrate videos via JSON) -->
    <g style="fill: #333333" transform="translate(550.952578 153.322453) scale(0.09 -0.09)">
     <defs>
      <path id="DejaVuSans-49" d="M 628 4666 
L 1259 4666 
L 1259 0 
L 628 0 
L 628 4666 
z
" transform="scale(0.015625)"/>
      <path id="DejaVuSans-4a" d="M 628 4666 
L 1259 4666 
L 1259 325 
Q 1259 -519 939 -900 
Q 619 -1281 -91 -1281 
L -331 -1281 
L -331 -750 
L -134 -750 
Q 284 -750 456 -515 
Q 628 -281 628 325 
L 628 4666 
z
" transform="scale(0.015625)"/>
      <path id="DejaVuSans-53" d="M 3425 4513 
L 3425 3897 
Q 3066 4069 2747 4153 
Q 2428 4238 2131 4238 
Q 1616 4238 1336 4038 
Q 1056 3838 1056 3469 
Q 1056 3159 1242 3001 
Q 1428 2844 1947 2747 
L 2328 2669 
Q 3034 2534 3370 2195 
Q 3706 1856 3706 1288 
Q 3706 609 3251 259 
Q 2797 -91 1919 -91 
Q 1588 -91 1214 -16 
Q 841 59 441 206 
L 441 856 
Q 825 641 1194 531 
Q 1563 422 1919 422 
Q 2459 422 2753 634 
Q 3047 847 3047 1241 
Q 3047 1584 2836 1778 
Q 2625 1972 2144 2069 
L 1759 2144 
Q 1053 2284 737 2584 
Q 422 2884 422 3419 
Q 422 4038 858 4394 
Q 1294 4750 2059 4750 
Q 2388 4750 2728 4690 
Q 3069 4631 3425 4513 
z
" transform="scale(0.015625)"/>
      <path id="DejaVuSans-4f" d="M 2522 4238 
Q 1834 4238 1429 3725 
Q 1025 3213 1025 2328 
Q 1025 1447 1429 934 
Q 1834 422 2522 422 
Q 3209 422 3611 934 
Q 4013 1447 4013 2328 
Q 4013 3213 3611 3725 
Q 3209 4238 2522 4238 
z
M 2522 4750 
Q 3503 4750 4090 4092 
Q 4678 3434 4678 2328 
Q 4678 1225 4090 567 
Q 3503 -91 2522 -91 
Q 1538 -91 948 565 
Q 359 1222 359 2328 
Q 359 3434 948 4092 
Q 1538 4750 2522 4750 
z
" transform="scale(0.015625)"/>
      <path id="DejaVuSans-4e" d="M 628 4666 
L 1478 4666 
L 3547 763 
L 3547 4666 
L 4159 4666 
L 4159 0 
L 3309 0 
L 1241 3903 
L 1241 0 
L 628 0 
L 628 4666 
z
" transform="scale(0.015625)"/>
     </defs>
     <use xlink:href="#DejaVuSans-28"/>
     <use xlink:href="#DejaVuSans-49" x="39.013672"/>
     <use xlink:href="#DejaVuSans-6e" x="68.505859"/>
     <use xlink:href="#DejaVuSans-74" x="131.884766"/>
     <use xlink:href="#DejaVuSans-65" x="171.09375"/>
     <use xlink:href="#DejaVuSans-67" x="232.617188"/>
     <use xlink:href="#DejaVuSans-72" x="296.09375"/>
     <use xlink:href="#DejaVuSans-61" x="337.207031"/>
     <use xlink:href="#DejaVuSans-74" x="398.486328"/>
     <use xlink:href="#DejaVuSans-65" x="437.695312"/>
     <use xlink:href="#DejaVuSans-20" x="499.21875"/>
     <use xlink:href="#DejaVuSans-76" x="531.005859"/>
     <use xlink:href="#DejaVuSans-69" x="590.185547"/>
     <use xlink:href="#DejaVuSans-64" x="617.96875"/>
     <use xlink:href="#DejaVuSans-65" x="681.445312"/>
     <use xlink:href="#DejaVuSans-6f" x="742.96875"/>
     <use xlink:href="#DejaVuSans-73" x="804.150391"/>
     <use xlink:href="#DejaVuSans-20" x="856.25"/>
     <use xlink:href="#DejaVuSans-76" x="888.037109"/>
     <use xlink:href="#DejaVuSans-69" x="947.216797"/>
     <use xlink:href="#DejaVuSans-61" x="975"/>
     <use xlink:href="#DejaVuSans-20" x="1036.279297"/>
     <use xlink:href="#DejaVuSans-4a" x="1068.066406"/>
     <use xlink:href="#DejaVuSans-53" x="1097.558594"/>
     <use xlink:href="#DejaVuSans-4f" x="1161.035156"/>
     <use xlink:href="#DejaVuSans-4e" x="1239.746094"/>
     <use xlink:href="#DejaVuSans-29" x="1314.550781"/>
    </g>
   </g>
  </g>
 </g>
 <defs>
  <clipPath id="p7e25a7327f">
   <rect x="25.965703" y="7.2" width="558" height="277.2"/>
  </clipPath>
 </defs>
</svg>
